<svg version="1.1" id="Layer_1" xmlns="http://www.w3.org/2000/svg" xmlns:xlink="http://www.w3.org/1999/xlink" x="0px" y="0px"
	 width="100%" viewBox="0 0 848 544" enable-background="new 0 0 848 544" xml:space="preserve">
<path fill="#000000" opacity="1.000000" stroke="none" 
	d="
M327.404205,282.433411 
	C324.795380,272.556274 322.303009,263.065582 319.798279,253.578094 
	C319.190491,251.275879 319.236786,249.044495 319.797363,246.688782 
	C321.334991,240.227020 323.107910,233.817139 323.903137,227.185150 
	C325.042969,217.679337 329.255981,209.466431 334.765503,201.766052 
	C338.815674,196.105255 342.540039,190.211334 347.436371,182.884964 
	C328.903748,181.749023 311.606842,182.826843 293.310699,182.158661 
	C296.886505,179.506134 300.012207,179.973709 302.892242,180.177292 
	C315.539398,181.071335 328.198639,180.038330 340.840149,180.588364 
	C347.324524,180.870499 353.059845,179.571320 358.666534,175.754074 
	C374.005981,165.310410 391.259369,158.465210 407.993286,150.655426 
	C420.514221,144.811859 432.677277,138.113419 445.479919,132.997360 
	C452.261963,130.287201 460.298401,130.874741 467.357666,128.662445 
	C477.826721,125.381577 487.211487,128.369080 496.806946,131.602615 
	C500.112701,132.716614 503.480255,133.769424 506.902985,134.390518 
	C516.303650,136.096420 523.868958,140.502975 529.916809,148.026917 
	C534.496338,153.724167 539.426941,159.259811 544.878052,164.106201 
	C552.119385,170.544189 551.679871,179.608490 554.325623,187.654114 
	C559.671875,203.912445 559.570129,220.656235 559.359741,237.471985 
	C559.145020,254.629166 559.225159,271.791351 559.322021,288.950531 
	C559.361816,296.003845 555.307983,301.964630 554.430786,308.720062 
	C552.629150,322.596008 544.977234,332.451141 535.222351,342.258179 
	C524.496216,353.041504 512.919067,360.209442 498.087128,362.455994 
	C497.923279,362.480804 497.748016,362.504150 497.604614,362.579041 
	C485.272675,369.014008 472.908661,365.830200 460.236542,363.429382 
	C439.696503,359.537903 421.666168,349.140045 402.245209,342.405884 
	C389.791901,338.087799 377.975342,332.283752 366.396881,326.042938 
	C361.065521,323.169281 355.421295,321.816528 349.534058,321.695282 
	C349.506012,319.244202 352.099396,320.257660 352.119598,317.749634 
	C349.331146,312.862427 344.822052,308.388336 341.054016,303.364349 
	C336.130768,296.800049 328.855835,291.751770 327.404205,282.433411 
M414.368805,251.499832 
	C414.360565,256.663086 414.516846,261.833801 414.283966,266.986908 
	C414.138397,270.207947 415.223938,272.189728 418.054565,273.820923 
	C431.900604,281.799927 445.653229,289.941437 459.413544,298.068298 
	C461.362885,299.219574 463.395386,299.777435 465.610657,299.527954 
	C472.750092,298.723877 479.924835,298.808228 487.067566,299.064148 
	C491.730194,299.231201 493.122131,297.580353 493.030060,293.007690 
	C492.741760,278.688904 492.833954,264.362274 492.801880,250.038651 
	C492.767944,234.881989 492.815186,219.724915 492.716187,204.568741 
	C492.673431,198.029221 491.870667,197.506592 485.488892,197.719421 
	C481.007568,197.868866 476.474884,197.257217 472.035919,197.697952 
	C466.654938,198.232224 460.912018,196.152527 455.921082,198.957230 
	C443.443573,205.969009 431.220947,213.433762 418.759430,220.474945 
	C415.375092,222.387253 414.172546,224.765472 414.282410,228.515854 
	C414.497009,235.838455 414.361755,243.171295 414.368805,251.499832 
M495.339417,272.499878 
	C495.800995,282.629425 494.280823,292.874634 496.583435,304.151794 
	C503.689209,298.683411 508.520081,293.059601 511.371490,285.757263 
	C521.696228,259.316132 520.155396,233.083969 509.583923,207.188416 
	C507.190674,201.326035 503.114380,196.345581 496.722839,193.388611 
	C494.665436,219.608246 495.660370,245.567398 495.339417,272.499878 
M379.170105,244.968735 
	C379.784637,247.791260 382.061890,246.442505 383.627594,246.647125 
	C386.425873,247.012817 389.389862,246.147797 392.895325,247.678146 
	C388.235321,250.689835 383.204987,247.594559 378.632416,250.560898 
	C389.495178,257.394470 400.024384,263.487488 411.181824,269.230896 
	C411.181824,254.382599 411.181824,240.141891 411.181824,225.110123 
	C403.227386,229.722672 396.004944,233.790268 388.914520,238.076294 
	C385.666351,240.039734 382.086548,241.548721 379.170105,244.968735 
M411.746857,217.981232 
	C411.746857,211.253036 411.746857,204.524826 411.746857,197.727219 
	C397.692688,199.259995 375.466461,229.263809 379.382996,240.328033 
	C379.837921,240.257004 380.388306,240.316040 380.770416,240.090271 
	C390.217957,234.508240 399.645172,228.891876 409.082794,223.293076 
	C410.785370,222.283035 411.831085,220.913086 411.746857,217.981232 
M379.936462,263.524445 
	C386.037750,278.662109 396.188324,290.032379 411.786530,298.492310 
	C411.786530,290.601196 411.611969,284.176941 411.857025,277.768738 
	C411.987946,274.344910 410.904999,272.281586 407.835266,270.606720 
	C400.528809,266.620392 393.442139,262.233215 386.219391,258.090424 
	C384.128571,256.891144 381.840759,254.300858 379.532440,255.895767 
	C377.059662,257.604340 379.489227,260.455170 379.936462,263.524445 
M462.404694,179.239670 
	C445.304138,179.123230 430.471069,185.822235 415.493652,193.773224 
	C417.788818,196.152374 419.725098,195.574509 421.476349,195.591690 
	C429.121918,195.666763 436.869415,194.860703 444.392609,195.829376 
	C458.169769,197.603271 467.201172,188.759903 478.636322,182.629532 
	C473.154419,179.841736 468.291870,179.358856 462.404694,179.239670 
M462.680878,302.612091 
	C461.377045,301.818054 459.986176,301.394409 458.435272,301.396332 
	C447.640411,301.409760 436.845490,301.383667 426.050690,301.403290 
	C424.766174,301.405640 423.318237,301.239197 422.698639,302.853607 
	C429.521027,312.865570 469.482910,319.933716 477.469513,312.047607 
	C473.134369,308.363617 467.958679,306.094604 462.680878,302.612091 
M444.804901,299.097992 
	C447.164948,298.709076 449.795197,299.740967 452.651184,297.211945 
	C440.242554,289.587799 428.190735,282.186310 414.376770,275.107178 
	C414.376770,283.031403 414.374329,289.477844 414.378021,295.924255 
	C414.379425,298.417633 416.053589,298.914734 418.059540,298.934509 
	C426.693451,299.019745 435.327576,299.085876 444.804901,299.097992 
M418.322876,217.858612 
	C428.419617,211.928207 438.516357,205.997803 449.229462,199.705353 
	C447.807617,198.855682 447.289368,198.280975 446.755859,198.266449 
	C436.788513,197.994934 426.819794,197.764465 416.850189,197.593384 
	C414.941284,197.560608 414.312347,198.909882 414.316010,200.609634 
	C414.327057,205.766876 414.324371,210.924530 414.396820,216.081055 
	C414.428070,218.303833 415.564026,219.073242 418.322876,217.858612 
M477.690155,186.214111 
	C473.308807,188.803909 468.927460,191.393707 463.513367,194.593964 
	C473.042725,196.163986 481.180756,194.361557 489.224762,195.652618 
	C491.625397,196.037903 492.640625,194.330902 492.780640,191.933105 
	C492.956177,188.927490 491.734100,187.040512 489.183411,185.473938 
	C485.366455,183.129669 481.840149,182.680008 477.690155,186.214111 
M496.848083,332.200226 
	C492.863739,331.401276 486.293182,335.365204 485.129608,339.175720 
	C484.546295,341.085846 485.638977,341.878998 487.013947,342.707397 
	C493.406921,346.559143 505.460266,341.359161 507.524567,333.656616 
	C504.216980,333.205933 500.932129,332.758331 496.848083,332.200226 
M492.232880,303.086823 
	C484.434204,299.874115 476.580475,301.556854 468.627228,302.588928 
	C471.573395,305.091675 474.625122,307.042725 477.704407,308.949249 
	C478.977295,309.737366 480.249084,310.577332 481.625244,311.139343 
	C486.204346,313.009491 492.025177,309.037506 492.232880,303.086823 
M505.564240,158.513184 
	C505.636902,156.495300 504.461456,155.108002 503.120422,153.852432 
	C500.655151,151.544266 497.161163,152.310196 494.301605,150.965149 
	C491.569305,149.679962 487.949280,148.880814 486.828949,152.773727 
	C485.813812,156.301285 488.072021,159.748108 491.444305,160.472488 
	C495.986786,161.448242 500.889893,161.730774 505.564240,158.513184 
M510.706787,175.161774 
	C514.378662,174.539093 512.715210,171.677612 512.376892,170.068420 
	C511.828735,167.461777 511.970673,163.230408 508.809662,163.041718 
	C504.511688,162.785141 499.789154,162.633850 495.352875,164.782715 
	C499.004700,170.761078 503.736023,174.011047 510.706787,175.161774 
M358.184113,268.623993 
	C361.109650,261.196777 354.550293,258.729126 351.284943,254.168961 
	C348.171051,256.596130 347.344971,259.768311 345.741028,262.405823 
	C345.040558,263.557709 345.425110,264.717468 346.371216,265.564728 
	C348.862183,267.795410 351.620483,269.654022 354.634796,271.108978 
	C356.547363,272.032166 357.379150,270.869171 358.184113,268.623993 
M529.410400,186.134323 
	C527.330750,184.129822 524.791931,182.927567 522.068298,182.152939 
	C518.652222,181.181412 517.197144,182.114563 517.613281,186.084274 
	C518.308594,192.718491 523.025146,195.283401 528.194214,198.362793 
	C529.378723,194.125458 531.320862,190.699921 529.410400,186.134323 
M349.843384,246.407196 
	C358.185699,241.747009 359.497253,237.545364 354.357208,229.751465 
	C344.148682,234.951859 343.034760,238.512314 349.843384,246.407196 
M519.496460,307.667694 
	C518.969543,310.400665 519.458313,312.027344 522.764221,310.781250 
	C525.232361,309.850922 527.766235,309.087555 530.203796,308.086639 
	C531.620789,307.504822 533.028320,306.397583 532.473755,304.705231 
	C531.478638,301.668610 531.361816,298.234955 528.965454,295.451721 
	C524.341797,298.313965 519.985901,300.953033 519.496460,307.667694 
M338.219482,277.645172 
	C340.387970,286.098267 342.778290,288.645416 349.844910,289.163605 
	C349.246887,282.815704 346.545746,277.462799 343.460358,272.317535 
	C342.609528,270.898682 341.044617,271.466980 340.240051,272.869110 
	C339.500671,274.157745 338.949646,275.554413 338.219482,277.645172 
M359.710144,279.942566 
	C357.985229,282.720581 357.441986,285.808685 357.418823,289.006226 
	C357.383972,293.813599 361.491547,294.075409 364.454956,294.398529 
	C367.874298,294.771332 366.535767,291.428986 366.768127,289.532959 
	C366.928680,288.223083 366.780731,286.873688 366.750275,285.542419 
	C366.651642,281.234924 364.257599,279.414459 359.710144,279.942566 
M511.135803,329.891052 
	C512.636780,327.896759 513.517517,325.380981 512.194946,323.395386 
	C510.698639,321.148895 508.312408,322.693176 506.317871,323.455963 
	C505.881195,323.622986 505.241394,323.774902 504.893188,323.579987 
	C499.414764,320.512817 498.893768,325.822327 496.286041,328.084259 
	C500.722046,330.795105 503.825562,331.251892 511.135803,329.891052 
M364.540527,312.064545 
	C367.584106,313.311920 370.137512,312.261688 372.791595,310.708984 
	C367.363190,304.060608 363.343750,301.080414 358.682617,300.111877 
	C356.264557,305.243713 356.959198,306.788391 364.540527,312.064545 
M469.609528,155.183151 
	C470.919250,154.346085 473.140442,153.989471 472.331177,151.773834 
	C471.698303,150.041214 469.801270,149.707642 468.126678,149.766251 
	C464.999878,149.875702 461.863007,150.052475 458.763245,150.455078 
	C456.657898,150.728546 454.726349,151.577942 453.938416,154.234314 
	C459.057892,155.761505 463.625977,159.548553 469.609528,155.183151 
M469.845184,343.560455 
	C471.704895,342.957062 474.283142,342.624542 472.560699,339.754639 
	C470.877869,336.950806 462.347015,334.958923 459.362396,336.429718 
	C457.902130,337.149231 456.029877,337.749420 456.457275,339.911011 
	C456.829041,341.791351 458.350403,342.471375 460.165741,342.641663 
	C463.141541,342.920746 466.111359,343.264191 469.845184,343.560455 
M343.346222,226.756973 
	C344.055176,222.458176 348.229858,218.814819 345.886963,213.115921 
	C344.115234,215.718719 342.105865,216.929977 339.928345,218.085770 
	C337.443207,219.404861 336.341217,222.092911 336.496552,224.854614 
	C336.630463,227.235916 337.899689,229.521118 340.244476,230.278305 
	C342.143707,230.891617 342.334686,228.637039 343.346222,226.756973 
M353.471466,203.301361 
	C358.548920,200.506485 361.659943,195.835526 365.571381,191.705688 
	C360.524811,187.480118 357.320221,191.447052 354.549133,193.552597 
	C351.671051,195.739441 349.972015,199.326263 353.471466,203.301361 
M373.241425,297.186890 
	C375.253479,297.613037 377.213257,299.047028 379.332458,297.611237 
	C378.933441,288.879974 377.482788,286.810669 370.524628,285.729980 
	C370.351166,289.667328 368.004913,293.702728 373.241425,297.186890 
M468.735718,140.935516 
	C467.828278,141.929367 465.784698,142.111099 466.360596,144.174332 
	C469.996063,146.024445 472.448395,146.389267 476.933411,145.963516 
	C478.898376,145.776993 480.560547,145.494278 480.625916,142.960953 
	C480.690369,140.464493 479.859894,138.719147 477.195160,138.357239 
	C474.273499,137.960464 471.581055,138.542740 468.735718,140.935516 
M481.286163,163.273941 
	C484.747772,162.363037 484.566437,160.658340 482.384094,158.435410 
	C478.164856,154.137726 473.776001,154.691818 469.915558,160.044907 
	C473.910736,163.757492 474.009827,163.789322 481.286163,163.273941 
M475.911438,329.430420 
	C473.305054,330.313293 470.427551,330.860718 469.699585,334.170410 
	C477.590302,339.609711 481.118927,338.856750 483.878754,330.837616 
	C481.447784,330.346497 479.058350,329.863800 475.911438,329.430420 
M468.029053,349.698273 
	C469.597748,354.196655 472.889709,355.989349 477.478760,355.601593 
	C479.375092,355.441376 480.423035,354.264709 480.574432,352.361877 
	C480.728729,350.422699 480.457153,348.643341 478.174500,348.132385 
	C474.799377,347.376831 471.377869,346.474274 468.029053,349.698273 
M365.650177,210.785904 
	C365.974670,206.637039 364.051788,206.315323 360.905273,207.966812 
	C357.752045,209.621811 357.102844,215.149582 359.586395,220.333710 
	C364.176117,219.164413 365.791016,215.983383 365.650177,210.785904 
M376.912872,173.333221 
	C376.376251,175.878357 375.006683,179.278610 379.625092,178.679810 
	C383.594025,178.165192 387.509491,176.721115 390.772644,172.583054 
	C385.800598,171.530518 381.632660,169.361221 376.912872,173.333221 
M335.262115,257.990692 
	C336.569794,258.628784 337.629059,259.873444 339.433685,259.668610 
	C340.620514,257.584503 340.596649,255.262344 340.669769,252.938446 
	C340.758545,250.116089 339.235626,249.036636 336.655701,249.058670 
	C334.964081,249.073120 333.150543,249.134781 332.460602,251.052017 
	C331.492981,253.740768 332.358307,255.946854 335.262115,257.990692 
M533.867737,190.929062 
	C530.238464,197.069107 530.236389,201.489624 533.874512,203.791565 
	C535.221802,204.644073 537.447205,205.331940 537.383850,203.321091 
	C537.249695,199.063492 538.214661,194.326019 533.867737,190.929062 
M549.693054,288.150055 
	C549.343933,286.158173 548.337097,284.494751 546.186218,284.762421 
	C544.166931,285.013733 544.160645,287.207855 543.835571,288.733124 
	C543.184143,291.789001 542.921265,294.880737 545.071716,297.637207 
	C550.550293,296.522858 549.430237,292.374298 549.693054,288.150055 
M368.329285,207.917603 
	C368.487946,209.948334 367.569916,212.230408 369.633209,213.840088 
	C371.734802,213.860931 372.949890,212.331146 374.356842,211.282349 
	C376.772034,209.481918 377.790039,206.752411 375.957062,204.393845 
	C374.102661,202.007706 371.757629,204.217880 369.809418,205.198151 
	C369.183472,205.513107 368.891754,206.492447 368.329285,207.917603 
M447.197266,147.218307 
	C450.659210,146.664719 453.664429,145.285507 455.986115,142.721512 
	C455.346680,141.024155 453.970551,140.638794 452.863953,139.999390 
	C451.396667,139.151596 449.760376,137.251907 448.138336,139.387665 
	C446.389618,141.690216 444.110046,143.911209 444.292358,147.114868 
	C444.333282,147.833420 445.733459,147.461807 447.197266,147.218307 
M374.264771,193.696762 
	C372.312134,194.957306 368.628357,195.493927 369.757721,198.503113 
	C370.786499,201.244370 374.139954,199.894714 376.396454,199.416199 
	C379.300934,198.800278 381.370911,196.491867 380.395844,193.662521 
	C379.349701,190.626907 376.834015,192.974396 374.264771,193.696762 
M544.337036,206.200363 
	C544.316589,207.188812 544.156921,208.198486 544.303772,209.161423 
	C544.638062,211.353424 543.235718,215.043030 546.951477,214.868088 
	C550.418762,214.704849 549.999146,211.203705 549.928040,208.571259 
	C549.887756,207.078125 549.696899,205.601227 548.627441,204.417984 
	C546.593750,202.167862 545.072815,202.066818 544.337036,206.200363 
M455.396088,351.468933 
	C452.440552,345.869263 450.135315,344.681488 445.185181,346.207825 
	C446.878906,352.938263 450.947968,355.305756 455.396088,351.468933 
M486.914124,354.731720 
	C489.251099,353.314728 492.684662,352.171570 491.663910,348.827728 
	C490.976349,346.575256 487.838135,347.372833 485.835571,347.693756 
	C483.209534,348.114594 482.752136,350.593689 482.644104,352.722412 
	C482.520599,355.157318 484.490875,355.005249 486.914124,354.731720 
M356.414032,249.456711 
	C354.680084,249.989380 353.020691,250.749207 354.437805,252.884552 
	C355.676208,254.750671 356.937317,257.771851 359.371216,257.134766 
	C362.749634,256.250397 362.003418,252.768127 362.187592,250.162918 
	C360.447876,248.946274 358.753601,249.457169 356.414032,249.456711 
M366.741516,274.683197 
	C367.510345,270.823547 365.928864,268.347900 362.383698,266.935699 
	C360.254486,268.601349 360.165405,270.800354 360.443390,272.946075 
	C360.884918,276.353699 363.693787,277.390167 366.741516,274.683197 
M332.201965,233.715042 
	C331.190735,236.368240 331.409149,239.035446 331.735901,241.925400 
	C334.422241,241.071350 336.182861,239.589172 337.615417,237.787292 
	C339.658844,235.217010 337.315948,233.322144 336.038635,231.739273 
	C334.265808,229.542343 333.377991,231.825012 332.201965,233.715042 
M356.148163,277.571503 
	C355.735046,273.800568 352.968018,273.174805 349.448792,272.517670 
	C349.216736,277.456299 351.793274,280.629486 354.038483,284.555389 
	C356.029449,282.243256 355.599823,280.123840 356.148163,277.571503 
M514.419250,306.380798 
	C510.280487,307.333771 508.636353,310.035950 508.640350,314.157745 
	C511.635742,315.031616 514.022034,314.324890 515.442810,312.100189 
	C516.502258,310.441284 517.756348,308.187134 514.419250,306.380798 
M337.747406,270.863373 
	C339.613251,265.328796 338.661835,263.378998 333.149445,261.868652 
	C331.816223,265.472534 333.248260,268.589172 334.909332,271.579163 
	C335.535583,272.706421 336.596252,272.242737 337.747406,270.863373 
M483.509186,141.116852 
	C483.786255,146.219101 486.386871,147.305054 493.636505,144.573242 
	C490.090851,142.706543 489.270721,137.021317 483.509186,141.116852 
M365.605621,228.639801 
	C364.525574,226.535751 363.581238,223.167877 360.567322,225.060791 
	C356.070007,227.885361 360.485016,230.936172 360.862732,234.058960 
	C364.182343,232.391708 364.182343,232.391708 365.605621,228.639801 
M382.328979,307.826355 
	C382.091431,302.326050 378.260712,300.086029 372.416809,302.420502 
	C375.085144,305.394531 377.346130,308.543060 382.328979,307.826355 
M525.896973,167.667160 
	C524.081299,165.358536 521.820496,164.886734 518.656006,165.827087 
	C520.738220,169.765396 522.775024,173.056824 526.796326,174.775024 
	C528.386536,172.118317 526.458618,170.336670 525.896973,167.667160 
M523.679443,313.430908 
	C520.785034,314.357300 517.166321,314.585205 517.984253,319.184204 
	C522.953613,320.216492 523.969849,319.627075 527.000488,314.043549 
	C526.391479,312.862640 525.328430,313.270844 523.679443,313.430908 
M352.908264,295.700928 
	C351.215515,294.024628 348.806305,292.013062 347.052307,294.110596 
	C344.977753,296.591461 347.819366,298.475037 349.724243,299.994019 
	C350.716156,300.785004 351.691284,301.802185 353.269989,301.552673 
	C354.177551,299.814423 353.663727,298.075012 352.908264,295.700928 
M535.104919,314.692810 
	C534.350342,316.094910 533.054382,317.352600 533.930847,319.323395 
	C536.377686,320.373749 538.726807,320.407654 540.420227,317.970276 
	C541.786255,316.004059 540.200684,314.474274 539.047424,313.208252 
	C537.562073,311.577667 536.445190,312.875336 535.104919,314.692810 
M386.865234,293.671204 
	C384.539825,292.601318 382.204712,291.618042 382.369873,295.765076 
	C382.454498,297.889954 383.431488,299.576172 385.498779,300.389252 
	C386.805481,300.903137 387.661682,300.075012 388.457336,299.171936 
	C390.374603,296.995911 388.566467,295.604370 386.865234,293.671204 
M347.443604,229.278610 
	C350.854401,229.978058 352.351410,227.439133 353.455750,225.148880 
	C354.319366,223.357864 353.709473,221.301392 351.113342,220.430954 
	C348.645355,222.645905 348.145386,225.733597 347.443604,229.278610 
M505.493805,344.920563 
	C506.537354,347.961639 508.380890,348.151855 511.834778,345.653870 
	C513.118713,344.725311 514.255859,343.684753 513.532166,342.003998 
	C512.667297,339.995453 511.045685,340.939331 509.725220,341.426392 
	C508.171204,341.999603 506.789459,342.905670 505.493805,344.920563 
M510.791962,153.145264 
	C512.476929,153.238251 514.547913,153.530350 513.704651,150.811356 
	C513.060059,148.733047 506.443237,146.930176 503.372284,148.085419 
	C505.445038,150.244949 507.438751,152.054504 510.791962,153.145264 
M531.952209,170.740540 
	C530.205383,173.235443 531.766541,175.150925 533.319824,176.752274 
	C534.818848,178.297592 536.716736,178.365448 538.640320,176.669189 
	C537.406311,173.679718 536.494446,170.678696 531.952209,170.740540 
M390.508148,194.002991 
	C391.118988,192.710571 392.102539,191.467941 391.088470,189.956741 
	C385.485596,189.454865 384.261475,190.610657 384.499695,196.198456 
	C386.436707,195.928482 388.396545,195.787125 390.508148,194.002991 
M521.153809,329.958221 
	C526.027222,329.716095 526.629883,326.960449 525.579224,322.897186 
	C520.439636,324.834351 518.931641,327.028076 521.153809,329.958221 
M464.298096,166.446182 
	C466.321503,166.642670 468.547028,167.383926 469.584412,164.667725 
	C465.177826,160.660370 464.375488,160.632233 460.977600,164.247559 
	C461.436249,165.477509 462.651062,165.684570 464.298096,166.446182 
M536.487976,296.306641 
	C536.547241,293.967163 537.836182,291.566437 536.170044,289.146393 
	C534.452332,289.176178 533.349121,290.164551 532.703979,291.483673 
	C531.725159,293.484924 532.733398,295.299774 533.725464,297.005219 
	C534.545959,298.415802 535.447815,298.308685 536.487976,296.306641 
M508.748810,181.469543 
	C507.670288,186.554779 511.093170,186.486603 514.447571,186.952621 
	C515.390259,182.175064 513.292114,180.858917 508.748810,181.469543 
M522.288452,294.202515 
	C525.846497,295.210205 527.113586,292.587830 528.233459,290.172852 
	C528.696289,289.174835 527.991455,287.469574 526.679077,287.611664 
	C523.905457,287.912018 522.501099,289.906738 522.111816,292.609558 
	C522.065430,292.931396 522.110168,293.266388 522.288452,294.202515 
M541.857910,190.663452 
	C543.629028,187.710022 542.176270,185.057816 541.508911,182.062592 
	C536.707336,185.552490 536.784058,187.984009 541.857910,190.663452 
M526.513000,202.447250 
	C525.648254,199.699005 523.685181,198.332565 520.944214,197.724686 
	C519.633362,200.534195 520.730469,202.333405 522.767578,203.801880 
	C524.206909,204.839386 525.487488,204.832352 526.513000,202.447250 
M485.976196,323.502411 
	C484.217987,324.172546 482.108398,324.288300 481.039429,326.900726 
	C484.833801,328.068604 488.117554,328.792236 490.237244,324.408112 
	C488.956696,323.121155 487.766846,323.521759 485.976196,323.502411 
M333.729614,247.282089 
	C336.118164,247.207870 338.872955,247.866425 340.297729,245.261581 
	C341.025482,243.931091 340.566254,242.366394 338.575928,241.573654 
	C336.487976,242.952972 333.510742,243.498062 333.729614,247.282089 
M519.291626,176.970139 
	C520.363647,176.879791 522.227844,177.182083 521.738770,175.566589 
	C520.991943,173.100159 519.314148,171.072174 516.255310,170.583527 
	C514.654480,173.802231 515.546265,175.751602 519.291626,176.970139 
M371.171783,281.132721 
	C372.644409,281.890533 374.720428,283.940308 375.514801,281.280518 
	C376.496429,277.993805 373.773621,276.607147 371.026794,275.753662 
	C369.713745,277.514709 369.855255,279.041382 371.171783,281.132721 
M522.691223,158.191574 
	C521.931152,155.339890 519.773132,154.064590 517.327148,153.008530 
	C515.578125,155.121994 516.232483,156.791489 517.931763,157.855545 
	C519.294067,158.708542 520.597229,161.363708 522.691223,158.191574 
M530.343811,284.409027 
	C530.525757,285.676300 530.363647,287.113678 532.235413,287.832214 
	C533.867310,286.418121 536.066589,285.348938 536.083374,282.611603 
	C536.088989,281.698303 535.284546,281.098145 534.437866,280.975464 
	C532.284485,280.663300 531.013550,281.787689 530.343811,284.409027 
M365.175293,264.608521 
	C366.416168,265.662720 367.334381,265.437836 367.517120,263.797882 
	C367.778259,261.454895 368.661743,258.814026 365.166504,257.381622 
	C363.001678,259.554688 362.548004,261.722565 365.175293,264.608521 
M519.231934,341.490265 
	C521.766235,340.057922 522.673340,338.222809 520.803894,335.367706 
	C518.839111,335.895325 517.016602,336.316742 516.490417,338.367249 
	C516.078369,339.973267 516.595337,341.324432 519.231934,341.490265 
M464.168579,326.440491 
	C462.417480,326.324554 460.614777,326.337097 460.543701,328.682526 
	C460.502319,330.048157 461.726074,330.626404 462.941040,330.787750 
	C464.637482,331.013031 466.523956,331.028351 467.193939,329.130951 
	C467.829590,327.330811 466.018158,327.103882 464.168579,326.440491 
M440.918182,327.410919 
	C442.433044,327.788574 443.857880,327.854034 444.829895,326.309052 
	C441.652985,322.526642 440.746460,322.307739 437.013062,324.422974 
	C437.524933,326.026489 438.912445,326.589691 440.918182,327.410919 
M484.641449,170.132156 
	C486.020813,170.755966 487.401947,171.265839 488.815887,170.236038 
	C487.694000,164.836014 487.020111,164.533966 482.062408,167.285294 
	C482.076447,168.620636 483.132294,169.167313 484.641449,170.132156 
M423.759277,170.978409 
	C423.080933,172.042435 421.612640,173.655396 423.871735,173.977798 
	C426.948975,174.416931 428.900269,172.380203 430.023743,169.550781 
	C427.454285,167.538879 425.797211,168.895752 423.759277,170.978409 
M345.248352,202.970901 
	C344.432678,204.522797 343.401459,206.033463 344.317535,208.164169 
	C347.983215,208.284851 349.253143,206.239960 348.815094,203.011520 
	C348.421936,200.113968 346.990265,200.985291 345.248352,202.970901 
M449.260193,332.755615 
	C451.618927,333.169220 454.050995,334.088531 456.206940,331.965363 
	C452.373444,328.200043 449.978790,328.464478 449.260193,332.755615 
M535.422485,322.579559 
	C534.453674,322.526398 533.426025,322.243164 532.529419,322.472443 
	C531.082153,322.842621 530.465210,324.107025 530.517639,325.526398 
	C530.537903,326.074341 530.976440,326.835846 531.446960,327.093353 
	C532.649780,327.751678 533.691223,326.952850 534.603760,326.273407 
	C535.663574,325.484314 536.774536,324.603638 535.422485,322.579559 
M363.104156,187.266541 
	C368.044922,187.829300 368.044922,187.829300 370.194031,184.617844 
	C367.297119,185.085602 363.985901,182.193344 363.104156,187.266541 
M456.665588,158.445633 
	C453.974213,158.169495 452.063721,159.136292 450.954254,161.749741 
	C455.686768,163.327881 457.267761,162.486420 456.665588,158.445633 
M405.986725,311.052185 
	C405.480194,307.261963 402.800964,307.578796 399.887207,307.596375 
	C400.206848,311.686829 402.570282,311.943726 405.986725,311.052185 
M366.107727,242.125946 
	C367.401276,240.083176 367.387238,238.251480 365.402008,236.634369 
	C361.634125,239.684540 361.666534,240.318008 366.107727,242.125946 
M396.058502,313.500671 
	C394.646759,313.464325 392.304901,313.028992 393.164520,315.290314 
	C394.057251,317.638763 396.497955,318.125641 398.898987,316.952332 
	C399.025330,315.030670 397.710480,314.478119 396.058502,313.500671 
M406.512146,179.339584 
	C404.502411,179.497498 402.995392,180.167633 403.111084,182.588120 
	C405.006836,183.926651 406.766388,183.228958 408.158600,182.076538 
	C409.876099,180.654846 409.470856,179.540024 406.512146,179.339584 
M533.092346,264.806732 
	C534.503601,265.770660 535.406616,265.084442 535.585388,263.718109 
	C535.850586,261.692139 535.491394,259.773712 533.037354,258.723938 
	C531.459900,260.541290 531.946045,262.394684 533.092346,264.806732 
M528.100586,164.196945 
	C529.183105,164.784882 530.691101,165.198059 530.834778,163.676315 
	C531.077698,161.102585 529.374756,159.667557 526.627136,158.966034 
	C526.554382,159.873154 526.338379,160.531723 526.493652,161.086334 
	C526.751770,162.008179 527.248291,162.863297 528.100586,164.196945 
M534.911255,213.849625 
	C535.538696,209.390381 534.714478,208.586777 530.774841,209.925110 
	C531.146545,212.031479 532.083008,213.619644 534.911255,213.849625 
M432.198486,324.780243 
	C430.857117,323.475647 429.474426,322.515411 427.736633,324.007782 
	C427.767639,326.242004 429.256012,327.128815 430.738464,327.653839 
	C433.352631,328.579712 433.625580,327.314789 432.198486,324.780243 
M546.397217,301.516876 
	C543.280212,303.782318 545.656128,306.841644 545.112305,309.488281 
	C546.191101,306.866333 549.374512,304.698212 546.397217,301.516876 
M405.626953,317.420044 
	C407.380493,318.010345 409.189758,318.505646 410.162903,316.311066 
	C410.534058,315.474060 409.776611,314.566895 408.956024,314.586761 
	C407.312592,314.626648 404.670868,313.448517 405.626953,317.420044 
M391.525238,327.604828 
	C390.880035,325.729980 389.542389,324.771759 387.711639,325.614838 
	C386.350250,326.241730 386.819580,327.754791 387.502930,328.653992 
	C388.898743,330.490692 390.292725,329.980927 391.525238,327.604828 
M528.526245,220.166595 
	C529.403992,221.534790 530.222290,223.374634 532.179077,221.620514 
	C533.175781,220.727036 532.766479,219.439697 531.843750,218.588699 
	C530.276245,217.142883 528.955566,217.042770 528.526245,220.166595 
M461.876312,137.610794 
	C460.165222,137.064804 458.435272,136.347733 456.907257,138.078339 
	C460.365204,141.348160 460.761200,141.334167 461.876312,137.610794 
M547.436584,199.096863 
	C550.360413,196.779877 548.405823,195.324585 546.628052,193.476990 
	C544.464661,195.710510 545.750610,197.224960 547.436584,199.096863 
M379.392578,325.205933 
	C380.340546,325.695282 381.311951,326.851715 382.354675,325.651245 
	C383.061310,324.837738 382.659546,323.815308 381.915466,323.062408 
	C381.030121,322.166534 379.829407,321.856598 378.809967,322.419830 
	C377.608154,323.083832 378.332550,324.031647 379.392578,325.205933 
M515.020996,297.863007 
	C514.473206,298.967133 513.521057,300.088135 515.162659,301.173248 
	C517.268799,300.559143 518.871643,299.414551 517.902893,297.065399 
	C517.144470,295.226227 516.167358,296.767792 515.020996,297.863007 
M433.161987,172.581009 
	C435.715027,175.264175 436.875610,173.415482 438.554779,171.531311 
	C436.027740,169.676743 434.651276,170.716797 433.161987,172.581009 
z"/>
<path fill="#000000" opacity="1.000000" stroke="none" 
	d="
M340.784973,410.131073 
	C346.578857,405.562958 364.419617,407.383423 368.810944,412.542450 
	C372.391418,416.748901 373.093781,424.271027 369.340607,428.791443 
	C365.790222,433.067596 366.449921,436.432434 369.512054,440.258209 
	C370.741119,441.793854 371.950592,443.429535 372.225006,445.490479 
	C367.445038,447.999542 364.937012,447.455902 362.166687,443.340210 
	C360.587311,440.993835 359.078857,438.596161 357.417023,436.309875 
	C355.814636,434.105438 353.438812,433.923767 351.093353,434.593384 
	C348.782288,435.253204 348.441467,437.354492 348.330566,439.423218 
	C348.268158,440.587067 348.214508,441.758148 348.271606,442.920349 
	C348.427063,446.081787 346.550507,446.967346 343.855927,446.921692 
	C341.281342,446.878113 340.544281,445.430664 340.569122,442.997314 
	C340.679535,432.188690 340.658844,421.378754 340.784973,410.131073 
M363.529785,422.918427 
	C364.052399,420.101257 363.763519,417.346771 360.891327,416.126160 
	C357.316864,414.607025 353.356415,414.595886 349.823273,416.072815 
	C347.283936,417.134369 347.730652,424.894562 350.122894,426.208374 
	C353.260193,427.931366 360.529480,426.508118 363.529785,422.918427 
z"/>
<path fill="#000000" opacity="1.000000" stroke="none" 
	d="
M383.824432,421.974701 
	C383.823395,418.650787 383.852631,415.818268 383.819183,412.986511 
	C383.787537,410.304901 383.934570,407.903137 387.613464,407.907715 
	C391.273529,407.912292 392.007935,410.102448 392.024933,413.139404 
	C392.059418,419.300934 391.921997,425.480530 392.352509,431.617828 
	C392.769287,437.560394 397.871582,441.122345 403.216248,439.430115 
	C407.464233,438.085144 409.710083,434.986115 409.703674,430.407074 
	C409.695312,424.409546 409.756592,418.411560 409.700165,412.414581 
	C409.674652,409.705536 410.361664,407.872528 413.551270,407.884399 
	C416.725739,407.896240 417.401276,409.684265 417.363861,412.421356 
	C417.277374,418.750885 417.475616,425.085999 417.310516,431.412354 
	C417.074219,440.468170 410.990570,446.556183 401.849854,447.168091 
	C393.009827,447.759888 386.007935,442.146576 384.494110,433.422241 
	C383.861877,429.778748 383.869385,426.128754 383.824432,421.974701 
z"/>
<path fill="#000000" opacity="1.000000" stroke="none" 
	d="
M301.570007,425.562805 
	C301.210114,431.440063 303.488190,435.649261 308.219238,438.342651 
	C312.825134,440.964752 317.292358,440.055359 321.148438,436.742096 
	C323.860443,434.411865 325.934479,435.053528 327.917572,437.432129 
	C330.318817,440.312256 327.584900,441.645447 325.920013,442.970276 
	C318.810181,448.627899 309.399689,448.705353 301.804871,443.336945 
	C294.983917,438.515533 292.114258,429.598419 294.653748,421.115509 
	C297.064636,413.062164 304.562866,407.850098 313.547791,407.643402 
	C318.419067,407.531372 322.799133,408.525482 326.484070,411.803467 
	C327.984436,413.138092 329.681580,414.597961 327.735870,416.801178 
	C326.080597,418.675446 324.503754,419.668396 321.780609,417.922882 
	C312.702087,412.103668 305.309387,414.884644 301.570007,425.562805 
z"/>
<path fill="#000000" opacity="1.000000" stroke="none" 
	d="
M500.305542,416.403381 
	C500.329193,424.777130 500.329193,424.776062 508.321350,424.782776 
	C510.984497,424.785004 513.647949,424.772430 516.310669,424.808167 
	C517.864746,424.829010 519.484375,424.982025 519.559387,427.031555 
	C519.637573,429.166840 517.984680,429.288544 516.439880,429.302643 
	C512.611816,429.337555 508.773560,429.491913 504.957123,429.279633 
	C499.553894,428.979126 500.410248,432.721130 500.238373,435.998871 
	C500.054596,439.504059 500.296417,442.426147 505.027008,442.121582 
	C509.503357,441.833344 513.969910,442.884491 518.481995,442.242706 
	C520.021729,442.023682 522.138000,441.913605 522.359375,444.267822 
	C522.591797,446.739838 520.421326,446.763306 518.879211,446.792755 
	C512.391663,446.916809 505.900055,446.899872 499.410919,446.834167 
	C497.117126,446.810944 495.696594,445.715302 495.703247,443.151459 
	C495.730530,432.665100 495.735809,422.178375 495.676605,411.692230 
	C495.660400,408.820068 497.197845,407.920502 499.746429,407.927551 
	C505.738647,407.944092 511.731384,407.893250 517.722961,407.958740 
	C519.479858,407.977966 521.924683,407.685303 521.908936,410.275482 
	C521.891663,413.117615 519.264954,412.844940 517.367554,412.843353 
	C513.379395,412.839966 509.389832,412.463989 505.403992,412.510101 
	C503.111877,412.536652 500.528046,412.660126 500.305542,416.403381 
z"/>
<path fill="#000000" opacity="1.000000" stroke="none" 
	d="
M539.008667,432.060425 
	C542.050293,424.799622 544.939392,417.889465 547.834045,410.981659 
	C548.500854,409.390503 549.304321,407.930206 551.355713,407.965485 
	C552.895630,407.991974 553.762878,408.950409 554.337158,410.246338 
	C559.192932,421.204346 564.051331,432.161224 568.879456,443.131439 
	C569.275208,444.030701 569.582886,445.020813 568.863770,446.255524 
	C565.856018,447.650696 564.335999,445.943939 563.695007,443.170837 
	C562.592407,438.400818 559.718689,436.638855 554.969849,437.268829 
	C553.004272,437.529602 550.955627,437.497131 548.979553,437.280304 
	C543.937500,436.727051 540.165771,437.767731 538.988892,443.543213 
	C538.529114,445.799591 537.033386,447.523132 533.996704,445.782990 
	C534.088257,440.803802 537.499512,436.957977 539.008667,432.060425 
M546.042603,426.590973 
	C545.341980,428.441498 544.169189,430.643860 546.340393,431.949829 
	C548.984863,433.540405 552.112976,432.983337 555.010620,432.355682 
	C556.509216,432.031067 557.008118,430.545746 556.753723,429.179108 
	C555.977600,425.009094 555.097900,420.840393 551.689392,417.697174 
	C548.087402,419.439423 547.810364,423.055176 546.042603,426.590973 
z"/>
<path fill="#000000" opacity="1.000000" stroke="none" 
	d="
M456.490540,411.592865 
	C462.295929,406.995880 471.601807,406.463623 477.340302,410.141602 
	C478.763000,411.053436 480.412567,412.010864 479.199341,414.059082 
	C478.028259,416.036072 476.366028,415.366211 474.879028,414.409546 
	C471.934052,412.514801 468.704865,412.002502 465.300354,412.311951 
	C462.214783,412.592407 459.777039,413.806793 459.296722,417.214722 
	C458.816254,420.623413 460.761292,422.550446 463.723389,423.546692 
	C467.035187,424.660583 470.417206,425.563995 473.756073,426.599609 
	C478.188354,427.974335 480.945282,430.944824 481.171875,435.602936 
	C481.393341,440.156036 479.193756,443.553223 475.075958,445.664673 
	C469.584717,448.480316 459.130005,447.181732 454.660828,443.102966 
	C453.615387,442.148834 452.754303,441.161774 453.614319,439.662415 
	C454.645935,437.863953 456.043243,438.274139 457.450531,439.110291 
	C460.915161,441.168823 464.401154,443.106598 468.668793,442.640747 
	C472.199371,442.255341 475.646362,441.162476 476.199768,437.317719 
	C476.723938,433.676117 473.891510,431.709808 470.635773,430.646240 
	C468.262756,429.871002 465.895996,429.062408 463.487885,428.411346 
	C454.401276,425.954681 451.840088,420.164734 456.490540,411.592865 
z"/>
<path fill="#000000" opacity="1.000000" stroke="none" 
	d="
M439.420044,436.046173 
	C439.510071,438.649170 439.576721,440.804108 439.704376,442.955414 
	C439.845276,445.330109 438.986511,446.826843 436.406769,446.886017 
	C433.925262,446.942993 432.109985,446.088959 432.085297,443.283875 
	C431.991760,432.666199 431.944153,422.048096 431.894196,411.430054 
	C431.880615,408.545959 433.616760,407.829803 436.156281,407.923767 
	C439.060089,408.031097 439.755127,409.827209 439.725586,412.250580 
	C439.630737,420.032623 440.359009,427.825500 439.420044,436.046173 
z"/>
<path fill="#000000" opacity="1.000000" stroke="none" 
	d="
M587.322632,442.549927 
	C587.247009,444.701813 587.244995,446.623505 584.789307,446.305298 
	C582.826660,446.050934 582.867554,444.249451 582.858582,442.781433 
	C582.795410,432.507233 582.767761,422.232727 582.767578,411.958313 
	C582.767578,410.313934 582.693481,408.269714 584.996033,408.226837 
	C587.809265,408.174438 587.286987,410.590179 587.297546,412.271271 
	C587.360168,422.214203 587.327698,432.157715 587.322632,442.549927 
z"/>
<path fill="#000000" opacity="1.000000" stroke="none" 
	d="
M572.000488,322.362854 
	C566.430786,322.173187 561.309204,322.779694 556.283691,320.971130 
	C566.838928,319.396942 577.408142,319.631256 588.046631,320.884766 
	C582.984680,322.790161 577.700195,322.171661 572.000488,322.362854 
z"/>
<path fill="#000000" opacity="1.000000" stroke="none" 
	d="
M297.978943,249.160645 
	C291.369019,249.157120 285.254700,249.157120 279.140411,249.157120 
	C279.168762,248.438461 279.197113,247.719818 279.225433,247.001160 
	C289.690735,246.424988 300.159729,246.533356 310.659515,247.405899 
	C306.872162,250.284225 302.541229,248.728668 297.978943,249.160645 
z"/>
<path fill="#000000" opacity="1.000000" stroke="none" 
	d="
M358.319061,356.567932 
	C358.169159,358.097717 358.579865,359.352020 355.966431,361.079468 
	C355.714508,350.456512 355.742859,340.767517 356.215607,331.073303 
	C356.923859,331.036713 357.632141,331.000092 358.340424,330.963501 
	C358.340424,335.040863 358.342896,339.118256 358.339783,343.195618 
	C358.336487,347.505585 358.327881,351.815521 358.319061,356.567932 
z"/>
<path fill="#000000" opacity="1.000000" stroke="none" 
	d="
M358.115387,142.032135 
	C358.219116,149.609024 358.219116,156.798691 358.219116,164.145523 
	C355.728271,163.669785 355.897034,162.323807 355.882416,161.243423 
	C355.805878,155.590164 355.737915,149.934647 355.837982,144.282928 
	C355.858643,143.117020 354.969177,140.579315 358.115387,142.032135 
z"/>
</svg>